# xmcd
#
# Track frame offsets:
#	150
#	10241
#	19708
#	32264
#	43752
#	52496
#	64247
#	71587
#	81023
#	92168
#	101706
#	110696
#	119927
#	131428
#	142453
#	152660
#	164408
#	174747
#	185529
#	196240
#	204241
#	214816
#	223851
#	234846
#	243735
#	253995
#	265719
#	276013
#	287637
#	295690
#	306436
#	313175
#
# Disc length: 4324 seconds
#
# Revision: 1
# Processed by: cddbd v1.5.2PL0 Copyright (c) Steve Scherf et al.
# Submitted via: audiograbber 1.83.01
#
DISCID=f710e220
DTITLE=Various Artist - Golden Memories, Vol. 2 - The Golden Years of Country
DYEAR=1960
DGENRE=Country
TTITLE0=George Jones - I'm Ragged But I'm Right
TTITLE1=Buck Owens - There Goes My Love
TTITLE2=Dottie West - I Fall to Pieces
TTITLE3=Willis Brothers - Gonna Buy Me a Jukebox
TTITLE4=Jimmie Skinner - Dark Hollow
TTITLE5=Johnny Bond - Let the Tears Begin
TTITLE6=Moon Mullican - Down by the Riverside
TTITLE7=Arthur Smith - Under the Double Eagle
TTITLE8=Frankie Miller - A Little South of Memphis
TTITLE9=Charlie Walker - I'm Not Mixed Up Anymore
TTITLE10=Minnie Pearl - California Girls
TTITLE11=Joe Maphis - Fiddlin' on the Guitar
TTITLE12=Hawkshaw Hawkins - Little White Washed Chimney
TTITLE13=George Jones - Long Time to Forget
TTITLE14=Molly O'Day - Living the Right Life Now
TTITLE15=Reno and Smiley - I Know You're Married
TTITLE16=Johnny Bond - Sick, Sober and Sorry
TTITLE17=Patsy Montana - Wabash Cannonball
TTITLE18=Bob Willis - Maiden's Prayer
TTITLE19=Minnie Pearl - Astronauts of Grinder's Switch
TTITLE20=Buck Owens - It Don't Show on Me
TTITLE21=Faron Young - A Place for Girls Like You
TTITLE22=Patsy Cline - Stop the World
TTITLE23=Jimmy Dean - Look on the Good Side
TTITLE24=Cowboy Copas - Flat Top
TTITLE25=The Willis Brothers - Give Me Forty Acres
TTITLE26=Roy Drusky - Rom Across the Hall
TTITLE27=Dave Dudley - Where Do I Go From Here
TTITLE28=Dean Manuel n Jim Reeves' Blueboys - Ace in the Hole
TTITLE29=George Jones - Gotta Talk to Your Heart
TTITLE30=Archie Campbell - The Boy from Alabama
TTITLE31=Cowboy Copas - Sunny Tennessee
EXTD=
EXTT0=
EXTT1=
EXTT2=
EXTT3=
EXTT4=
EXTT5=
EXTT6=
EXTT7=
EXTT8=
EXTT9=
EXTT10=
EXTT11=
EXTT12=
EXTT13=
EXTT14=
EXTT15=
EXTT16=
EXTT17=
EXTT18=
EXTT19=
EXTT20=
EXTT21=
EXTT22=
EXTT23=
EXTT24=
EXTT25=
EXTT26=
EXTT27=
EXTT28=
EXTT29=
EXTT30=
EXTT31=
PLAYORDER=
